<svg xmlns="http://www.w3.org/2000/svg" xmlns:xlink="http://www.w3.org/1999/xlink" width="110" height="20" viewBox="0 0 110 20"><defs><path id="j9mza" d="M95.638 33.383c-.086.002-.171.005-.26.005-3.57 0-6.157-2.284-6.157-5.431v-.07c0-3.012 2.594-5.37 5.903-5.37.177 0 .349.006.514.016v-3.617c-.153-.006-.312-.006-.471-.006-6.484 0-11.377 3.886-11.377 9.047v.065c0 5.034 4.96 8.978 11.294 8.978.193 0 .37-.005.554-.01z"/><path id="j9mzb" d="M76.436 20.88c-.214 0-.954.003-1.156.009v3.65c.942.01 2.232.168 2.808.471.844.445 1.283 1.194 1.303 2.21a41.475 41.475 0 0 0-3.59-.257c-4.62-.119-6.903 1.409-7.362 3.853a3.93 3.93 0 0 0-.032.186 4.826 4.826 0 0 0-.057.74v.054c0 2.988 2.642 4.62 5.854 4.62 2.358 0 3.981-.763 5.156-1.916v1.739h4.679V27.38c0-4.083-2.324-6.5-7.603-6.5m2.972 9.975c-.42 2.212-2.697 2.543-3.214 2.57-3.681.195-3.812-2.33-2.574-3.098 1.664-1.035 5.803-.453 5.803-.453 0 .15.04.526-.015.981"/><path id="j9mzc" d="M68.484 28.237c0-4.082-2.495-7.267-7.773-7.267-5.285 0-7.781 3.185-7.781 7.267v7.987h4.89v-8.282c.09-1.511.682-3.296 2.89-3.296 2.202 0 2.845 1.785 2.93 3.296v8.282h4.844z"/><path id="j9mzd" d="M41.243 27.428c.382-1.937 1.687-3.203 3.692-3.203 2.032 0 3.306 1.292 3.594 3.203zm3.692-6.638c-4.967 0-8.435 3.548-8.435 7.852v.055c0 4.617 3.786 7.797 8.912 7.797.147 0 .624-.02.77-.023v-3.439c-.122.005-.58.028-.709.028-2.165 0-3.691-1.01-4.171-2.955h11.771c.028-.396.061-.648.061-1.071v-.054c0-4.279-2.504-8.19-8.2-8.19z"/><path id="j9mze" d="M30.088 25.81c-3.826-.816-4.364-1.208-4.364-2.417v-.055c0-.892.982-1.601 2.846-1.601.95 0 2.192.259 3.064.581v-3.857c-.81-.14-2.055-.301-3-.301-4.523 0-7.746 2.21-7.746 5.551v.05c0 3.654 2.874 4.678 7.335 5.625 3.699.789 4.047 1.315 4.047 2.34v.053c0 1.078-1.202 1.734-3.194 1.734-2.53 0-4.206-.867-6.196-2.234L20 34.144c2.656 1.971 5.63 2.946 8.98 2.946 4.777 0 8.128-2.05 8.128-5.706v-.052c0-3.208-2.532-4.549-7.02-5.522"/><path id="j9mzf" d="M127.624 29.21c0-1.996-.447-3.536-1.34-4.62-.894-1.084-2.114-1.626-3.661-1.626-1.561 0-2.786.542-3.677 1.626-.89 1.084-1.335 2.624-1.335 4.62 0 2.017.453 3.56 1.361 4.63.907 1.07 2.124 1.606 3.65 1.606 1.527 0 2.742-.535 3.646-1.605.904-1.07 1.356-2.614 1.356-4.63zm.194-5.926c.627.688 1.106 1.53 1.44 2.527.334.997.5 2.129.5 3.394 0 1.266-.17 2.399-.51 3.4-.34 1-.817 1.834-1.43 2.5a6.115 6.115 0 0 1-2.244 1.569c-.863.35-1.849.526-2.957.526-1.08 0-2.062-.179-2.946-.536a6.089 6.089 0 0 1-2.255-1.558c-.619-.681-1.095-1.517-1.43-2.507-.333-.99-.5-2.122-.5-3.394 0-1.252.165-2.374.496-3.368.33-.994.812-1.845 1.444-2.553a5.926 5.926 0 0 1 2.255-1.548c.898-.357 1.877-.536 2.936-.536 1.101 0 2.09.18 2.967.542a6.18 6.18 0 0 1 2.235 1.542zm-15.013 12.461c-.84.386-1.756.72-2.75 1.006-.995.286-1.956.428-2.885.428-1.197 0-2.295-.165-3.292-.495-.998-.33-1.847-.825-2.55-1.485-.708-.667-1.255-1.501-1.64-2.502-.385-1-.578-2.171-.578-3.512 0-2.456.717-4.393 2.152-5.814 1.434-1.42 3.404-2.13 5.908-2.13.874 0 1.766.105 2.678.315.912.21 1.894.566 2.946 1.068v2.424h-.185a16.19 16.19 0 0 0-.93-.65 8.81 8.81 0 0 0-1.196-.67 8.895 8.895 0 0 0-1.615-.532 9.017 9.017 0 0 0-2.049-.211c-1.72 0-3.08.552-4.081 1.655-1.002 1.104-1.502 2.598-1.502 4.483 0 1.987.523 3.533 1.569 4.637 1.045 1.103 2.47 1.655 4.272 1.655.66 0 1.32-.065 1.976-.196.657-.13 1.234-.299 1.729-.505v-3.765h-4.118v-1.795h6.14z"/></defs><g><g transform="translate(-20 -18)"><use fill="#fff" xlink:href="#j9mza"/></g><g transform="translate(-20 -18)"><use fill="#fff" xlink:href="#j9mzb"/></g><g transform="translate(-20 -18)"><use fill="#fff" xlink:href="#j9mzc"/></g><g transform="translate(-20 -18)"><use fill="#fff" xlink:href="#j9mzd"/></g><g transform="translate(-20 -18)"><use fill="#fff" xlink:href="#j9mze"/></g><g transform="translate(-20 -18)"><use fill="#fa8800" xlink:href="#j9mzf"/></g></g></svg>